<?xml version="1.0" standalone="no"?>
<!DOCTYPE svg PUBLIC "-//W3C//DTD SVG 20010904//EN"
 "http://www.w3.org/TR/2001/REC-SVG-20010904/DTD/svg10.dtd">
<svg version="1.0" xmlns="http://www.w3.org/2000/svg"
 width="50.000000pt" height="50.000000pt" viewBox="0 0 50.000000 50.000000"
 preserveAspectRatio="xMidYMid meet">

<g transform="translate(0.000000,50.000000) scale(0.100000,-0.100000)"
fill="#000000" stroke="none">
<path d="M205 487 c-29 -14 -47 -39 -60 -84 -4 -13 -2 -23 3 -23 5 0 12 13 15
29 4 16 16 39 28 50 47 44 139 11 139 -50 0 -16 5 -29 10 -29 20 0 9 51 -17
80 -33 35 -76 45 -118 27z"/>
<path d="M125 266 c-70 -31 -98 -108 -66 -181 26 -60 64 -78 174 -83 150 -8
221 38 221 140 0 57 -23 94 -75 120 -42 22 -208 24 -254 4z m271 -50 c26 -26
34 -42 34 -70 0 -84 -42 -116 -154 -116 l-76 0 0 49 c0 75 10 110 42 142 24
23 38 29 75 29 38 0 50 -5 79 -34z"/>
<path d="M279 191 c-18 -14 -23 -29 -23 -67 l-1 -49 49 1 c55 1 76 19 76 66 0
32 -31 68 -59 68 -10 0 -29 -8 -42 -19z"/>
</g>
</svg>
